<svg xmlns="http://www.w3.org/2000/svg" viewBox="0 0 100 100" x="0px" y="0px"><title>dArtboard 14</title><g data-name="Layer 2"><path d="M52,45.8A23.79,23.79,0,0,0,28.24,69.56a.9.9,0,0,0,.9.9H74.86a.9.9,0,0,0,.9-.9A23.79,23.79,0,0,0,52,45.8ZM35.47,68.66a16.55,16.55,0,0,1,33.06,0Zm34.86,0a18.35,18.35,0,0,0-36.66,0H30.05a22,22,0,0,1,43.9,0Z"/><path d="M51.84,61.75h-.13L38.8,63.62a.91.91,0,0,0-.77.89.9.9,0,0,0,.77.89l12.91,1.84h.13a2.75,2.75,0,0,0,0-5.5Zm0,3.69-6.61-.93,6.61-1a.95.95,0,0,1,0,1.89Z"/><path d="M77.52,35.39a.89.89,0,0,0,.77-.44c.25-.41,6.08-10.15,6.08-20.86a.9.9,0,0,0-.9-.9H16.53a.9.9,0,0,0-.9.9c0,10.71,5.83,20.45,6.08,20.86a.89.89,0,0,0,.77.44H43.65v2.44H30.81a4.93,4.93,0,0,0-4.7,3.53L16.24,75.19A4.91,4.91,0,0,0,21,81.47h1.76v4.44a.91.91,0,0,0,.9.9H29a.9.9,0,0,0,.9-.9V81.47h40.3v4.44a.9.9,0,0,0,.9.9h5.34a.91.91,0,0,0,.9-.9V81.47h1.76a4.91,4.91,0,0,0,4.71-6.28L73.89,41.36a4.93,4.93,0,0,0-4.7-3.53H56.35V35.39Zm4,43a3.09,3.09,0,0,1-2.48,1.24H21a3.11,3.11,0,0,1-3-4l9.87-33.84a3.12,3.12,0,0,1,3-2.23H69.19a3.12,3.12,0,0,1,3,2.23L82,75.7A3.1,3.1,0,0,1,81.53,78.43Zm-6,6.57H72V81.47h3.54ZM28.05,85H24.51V81.47h3.54Zm17.4-47.17V35.39h9.1v2.44ZM82.55,15c-.28,8.62-4.48,16.66-5.55,18.58H23c-1.08-1.92-5.27-9.95-5.55-18.58Z"/></g></svg>
