<svg xmlns="http://www.w3.org/2000/svg" xmlns:xlink="http://www.w3.org/1999/xlink" version="1.0" x="0px" y="0px" viewBox="0 0 96 96" style="enable-background:new 0 0 96 96;" xml:space="preserve"><g><g><path d="M95.6,16.9c0-0.6-0.4-1-1-1c-3.7,0-6.1,6.7-6.3,9.6L86.5,49c-0.1,1.2,0.3,2.5,1.2,3.4c0.3,0.3,0.6,0.5,0.9,0.7l-1.1,22.5    c0,1,0.3,1.9,1,2.6c0.7,0.7,1.6,1.1,2.6,1.1h1c1.9,0,3.5-1.6,3.5-3.5V53c0-0.1,0-0.1,0-0.2V16.9z M90.3,25.6    c0.2-2.3,1.8-6.1,3.3-7.3v33h-4c-0.1,0-0.1,0-0.1,0c-0.1-0.1-0.3-0.2-0.4-0.3c-0.5-0.5-0.7-1.2-0.6-1.9L90.3,25.6z M92,77.4h-1    c-0.4,0-0.8-0.2-1.1-0.5c-0.3-0.3-0.4-0.7-0.4-1.1l1.1-22c0.1,0,0.2,0,0.4,0h2.7v22C93.6,76.7,92.9,77.4,92,77.4z"/></g><g><path d="M49.5,16.1c-17.5,0-31.8,14.3-31.8,31.8S32,79.6,49.5,79.6s31.8-14.3,31.8-31.8S67.1,16.1,49.5,16.1z M49.5,77.6    c-16.4,0-29.8-13.4-29.8-29.8s13.4-29.8,29.8-29.8s29.8,13.4,29.8,29.8S66,77.6,49.5,77.6z"/></g><g><path d="M67.4,49.1c-0.6-0.1-1,0.3-1.1,0.9c-1.1,8.4-8.3,14.8-16.8,14.8c-9.3,0-16.9-7.6-16.9-16.9s7.6-16.9,16.9-16.9    c3.5,0,6.8,1,9.6,3c0.5,0.3,1.1,0.2,1.4-0.2c0.3-0.5,0.2-1.1-0.2-1.4c-3.2-2.2-6.9-3.4-10.8-3.4c-10.4,0-18.9,8.5-18.9,18.9    s8.5,18.9,18.9,18.9c9.5,0,17.6-7.1,18.8-16.5C68.4,49.7,68,49.2,67.4,49.1z"/></g><g><path d="M65.3,40.5c0.3,0.7,0.6,1.5,0.8,2.2c0.1,0.4,0.5,0.7,1,0.7c0.1,0,0.2,0,0.3,0c0.5-0.1,0.8-0.7,0.7-1.2    c-0.2-0.8-0.5-1.7-0.9-2.5c-0.4-1-0.9-1.9-1.5-2.8c-0.3-0.5-0.9-0.6-1.4-0.3c-0.5,0.3-0.6,0.9-0.3,1.4    C64.5,38.8,64.9,39.7,65.3,40.5z"/></g><g><path d="M13.7,16.6H1.4c-0.6,0-1,0.4-1,1v16c0,2.6,1.4,5,3.7,6.3v36.8c0,1.9,1.6,3.5,3.5,3.5s3.5-1.6,3.5-3.5V39.8    c2.3-1.3,3.7-3.6,3.7-6.3v-16C14.7,17,14.2,16.6,13.7,16.6z M12.7,33.6c0,2.1-1.2,3.9-3.1,4.7C9.2,38.5,9,38.8,9,39.2v37.5    c0,0.8-0.7,1.5-1.5,1.5s-1.5-0.7-1.5-1.5V39.2c0-0.4-0.2-0.8-0.6-0.9c-1.9-0.8-3.1-2.7-3.1-4.7v-15h2.2v12.2c0,0.6,0.4,1,1,1    s1-0.4,1-1V18.6h2v12.2c0,0.6,0.4,1,1,1s1-0.4,1-1V18.6h2.2V33.6z"/></g></g></svg>
