<svg xmlns="http://www.w3.org/2000/svg" xmlns:xlink="http://www.w3.org/1999/xlink" version="1.1" x="0px" y="0px" viewBox="0 0 100 100" style="enable-background:new 0 0 100 100;" xml:space="preserve"><g><g><g><path d="M50,53.5c-17.6,0-36.3-4.1-36.3-11.6c0-6.2,12.5-9.7,24.1-11c0.7-0.1,1.3,0.4,1.4,1.1s-0.4,1.3-1.1,1.4     c-14.4,1.6-21.9,5.5-21.9,8.5c0,4.3,13.9,9.1,33.8,9.1c19.9,0,33.8-4.8,33.8-9.1c0-3.4-9.5-7.7-25.5-8.8     c-0.7-0.1-1.2-0.6-1.2-1.3c0.1-0.7,0.7-1.2,1.3-1.2c20.5,1.5,27.8,7,27.8,11.3C86.3,49.4,67.6,53.5,50,53.5z"/></g><g><path d="M49.2,83c-3.2,0-14.9-0.6-24.1-9.4c-7.6-7.2-11.4-17.9-11.4-31.8c0-0.7,0.6-1.2,1.2-1.2s1.2,0.6,1.2,1.2     c0,13.2,3.6,23.3,10.6,30c9.7,9.3,23,8.7,23.1,8.7c0.7,0,1.3,0.5,1.3,1.2S50.8,83,50.1,83C50,83,49.7,83,49.2,83z"/></g><g><path d="M50.8,83c-0.5,0-0.8,0-0.8,0c-0.7,0-1.2-0.6-1.2-1.3c0-0.7,0.6-1.2,1.3-1.2c0.1,0,13.4,0.6,23.1-8.7     c7-6.7,10.6-16.7,10.6-30c0-0.7,0.6-1.2,1.2-1.2s1.2,0.6,1.2,1.2c0,13.9-3.8,24.6-11.4,31.8C65.7,82.4,54,83,50.8,83z"/></g></g><g><path d="M44.8,46.1c-0.4,0-0.7-0.2-1-0.5c-4.3-5.6-1.9-13.4,0.9-22.4l0.5-1.5c0.9-3,0.9-5.5-0.1-7.3c-1.1-1.9-3-2.5-3-2.5    c-0.7-0.2-1.1-0.9-0.9-1.5c0.2-0.7,0.9-1.1,1.5-0.9c0.1,0,2.9,0.8,4.5,3.7c1.3,2.4,1.4,5.5,0.3,9.3L47.2,24    c-2.7,8.7-4.9,15.6-1.3,20.1c0.4,0.5,0.3,1.3-0.2,1.8C45.4,46,45.1,46.1,44.8,46.1z"/></g><g><path d="M54.6,44.5c-0.3,0-0.7-0.1-0.9-0.4c-1.6-1.7-3.7-6.2,0.1-18c2.8-8.7-1.2-11-1.2-11C52,14.8,51.7,14,52,13.4    c0.3-0.6,1.1-0.9,1.7-0.6c0.2,0.1,6,3.2,2.5,14c-3.6,11.2-1.4,14.7-0.7,15.5c0.5,0.5,0.5,1.3,0,1.8C55.3,44.4,55,44.5,54.6,44.5z"/></g><g><path d="M21.3,49.1c-0.3,0-0.7-0.1-0.9-0.4c-0.5-0.5-0.4-1.3,0.1-1.8c0.2-0.2,5.2-4.8,9.7-4.9c1.5,0,2.6-0.6,4-1.4    c1.9-1.1,4.2-2.4,8.3-2.5c0.7,0,1.3,0.5,1.3,1.2s-0.5,1.3-1.2,1.3c-3.4,0.1-5.3,1.2-7.1,2.2c-1.5,0.8-3,1.7-5.1,1.8    c-2.9,0.1-6.8,3.1-8.1,4.3C21.9,49,21.6,49.1,21.3,49.1z"/></g><g><path d="M77,48.1c-0.5,0-0.9-0.3-1.1-0.7c-1-2.1-4.4-3.7-7-4.1c-2.3-0.4-2.6-0.5-4.1-1.4c-0.6-0.3-1.4-0.8-2.6-1.5    c-3.9-2-9-1.3-9-1.3c-0.7,0.1-1.3-0.4-1.4-1.1c-0.1-0.7,0.4-1.3,1.1-1.4c0.2,0,6-0.8,10.6,1.6c1.3,0.7,2.1,1.2,2.7,1.5    c1.3,0.7,1.3,0.8,3.2,1.1c3.2,0.5,7.4,2.5,8.8,5.5c0.3,0.6,0.1,1.4-0.6,1.7C77.4,48,77.2,48.1,77,48.1z"/></g><g><path d="M46,40.1c-0.6,0-1.2-0.5-1.2-1.1c-0.1-0.7,0.4-1.3,1.1-1.4c1.1-0.1,2.6-0.3,2.8-0.4c0.6-0.3,1.3,0.1,1.6,0.7    c0.3,0.6-0.1,1.4-0.7,1.6c-0.4,0.2-1.6,0.3-3.5,0.5C46.1,40.1,46.1,40.1,46,40.1z"/></g><g><path d="M57.1,48.1c-0.5,0-1-0.3-1.2-0.8c-0.2-0.6,0.1-1.4,0.8-1.6c1.3-0.5,3.7-1.7,4.5-2.8c0.4-0.6,1.2-0.7,1.7-0.3    c0.6,0.4,0.7,1.2,0.3,1.7c-1.5,2.2-5.3,3.6-5.7,3.7C57.4,48.1,57.3,48.1,57.1,48.1z"/></g><g><path d="M40.1,49.1c-2.3,0-4.6-2.1-4.8-2.4c-0.5-0.5-0.5-1.3,0-1.8s1.3-0.5,1.8,0c0.6,0.6,2.3,1.8,3.3,1.7    c0.7-0.1,1.3,0.4,1.4,1.1c0.1,0.7-0.4,1.3-1.1,1.4C40.5,49.1,40.3,49.1,40.1,49.1z"/></g></g></svg>
