<svg xmlns="http://www.w3.org/2000/svg" xmlns:xlink="http://www.w3.org/1999/xlink" version="1.0" x="0px" y="0px" viewBox="0 0 64 64" style="enable-background:new 0 0 64 64;" xml:space="preserve"><g><path d="M59.5,7.5h-55C2,7.5,0,9.5,0,12v40c0,2.5,2,4.5,4.5,4.5h55c2.5,0,4.5-2,4.5-4.5V12C64,9.5,62,7.5,59.5,7.5z M61,52   c0,0.9-0.6,1.5-1.5,1.5h-55C3.6,53.5,3,52.9,3,52V12c0-0.9,0.6-1.5,1.5-1.5h55c0.9,0,1.5,0.6,1.5,1.5V52z"/><path d="M19.5,34c5,0,9-4,9-9s-4-9-9-9s-9,4-9,9S14.5,34,19.5,34z M19.5,19c3.3,0,6,2.7,6,6s-2.7,6-6,6s-6-2.7-6-6S16.2,19,19.5,19   z"/><path d="M24,37h-8c-4.8,0-8.5,3.7-8.5,8.5C7.5,46.3,8.2,47,9,47s1.5-0.7,1.5-1.5c0-3.1,2.4-5.5,5.5-5.5h8c3.1,0,5.5,2.4,5.5,5.5   c0,0.8,0.7,1.5,1.5,1.5s1.5-0.7,1.5-1.5C32.5,40.7,28.8,37,24,37z"/><path d="M54,22H39c-0.8,0-1.5,0.7-1.5,1.5S38.2,25,39,25h15c0.8,0,1.5-0.7,1.5-1.5S54.8,22,54,22z"/><path d="M54,29.5H39c-0.8,0-1.5,0.7-1.5,1.5s0.7,1.5,1.5,1.5h15c0.8,0,1.5-0.7,1.5-1.5S54.8,29.5,54,29.5z"/><path d="M54,37H39c-0.8,0-1.5,0.7-1.5,1.5S38.2,40,39,40h15c0.8,0,1.5-0.7,1.5-1.5S54.8,37,54,37z"/></g></svg>
