<svg xmlns="http://www.w3.org/2000/svg" xmlns:xlink="http://www.w3.org/1999/xlink" version="1.1" x="0px" y="0px" viewBox="0 0 48 48" style="enable-background:new 0 0 48 48;" xml:space="preserve"><path d="M36.4,11.67c-0.01-0.01-0.02-0.03-0.03-0.04c-0.01-0.01-0.03-0.02-0.04-0.03C33.16,8.45,28.81,6.5,24,6.5  s-9.16,1.95-12.33,5.1c-0.01,0.01-0.03,0.02-0.04,0.03c-0.01,0.01-0.02,0.03-0.03,0.04C8.45,14.84,6.5,19.19,6.5,24  s1.95,9.16,5.1,12.33c0.01,0.01,0.02,0.03,0.03,0.04c0.01,0.01,0.03,0.02,0.04,0.03c3.17,3.15,7.52,5.1,12.33,5.1  s9.16-1.95,12.33-5.1c0.01-0.01,0.03-0.02,0.04-0.03c0.01-0.01,0.02-0.03,0.03-0.04c3.15-3.17,5.1-7.52,5.1-12.33  S39.55,14.84,36.4,11.67z M36,35.29l-1.04-1.04c-0.2-0.2-0.51-0.2-0.71,0s-0.2,0.51,0,0.71L35.29,36  c-2.84,2.67-6.62,4.35-10.79,4.48V39c0-0.28-0.22-0.5-0.5-0.5s-0.5,0.22-0.5,0.5v1.47c-4.17-0.13-7.95-1.8-10.79-4.48l1.04-1.04  c0.2-0.2,0.2-0.51,0-0.71s-0.51-0.2-0.71,0L12,35.29c-2.68-2.84-4.35-6.62-4.48-10.79H9c0.28,0,0.5-0.22,0.5-0.5S9.28,23.5,9,23.5  H7.53c0.13-4.17,1.8-7.95,4.48-10.79l1.04,1.04c0.1,0.1,0.23,0.15,0.35,0.15s0.26-0.05,0.35-0.15c0.2-0.2,0.2-0.51,0-0.71L12.71,12  c2.84-2.67,6.62-4.35,10.79-4.48V9c0,0.28,0.22,0.5,0.5,0.5s0.5-0.22,0.5-0.5V7.53c4.17,0.13,7.95,1.8,10.79,4.48l-1.04,1.04  c-0.2,0.2-0.2,0.51,0,0.71c0.1,0.1,0.23,0.15,0.35,0.15s0.26-0.05,0.35-0.15L36,12.71c2.68,2.84,4.35,6.62,4.48,10.79H39  c-0.28,0-0.5,0.22-0.5,0.5s0.22,0.5,0.5,0.5h1.47C40.35,28.67,38.67,32.45,36,35.29z"/><path d="M24,3.5C12.7,3.5,3.5,12.7,3.5,24S12.7,44.5,24,44.5S44.5,35.3,44.5,24S35.3,3.5,24,3.5z M24,43.5  C13.25,43.5,4.5,34.75,4.5,24S13.25,4.5,24,4.5S43.5,13.25,43.5,24S34.75,43.5,24,43.5z"/><path d="M24,11.5c-0.28,0-0.5,0.22-0.5,0.5v11.82l-4.88,5.86c-0.18,0.21-0.15,0.53,0.06,0.7c0.09,0.08,0.21,0.12,0.32,0.12  c0.14,0,0.29-0.06,0.38-0.18l5-6c0.08-0.09,0.12-0.2,0.12-0.32V12C24.5,11.72,24.28,11.5,24,11.5z"/></svg>
