<svg xmlns="http://www.w3.org/2000/svg" xmlns:xlink="http://www.w3.org/1999/xlink" version="1.1" x="0px" y="0px" viewBox="0 0 100 100" enable-background="new 0 0 100 100" xml:space="preserve"><path d="M60.416,59.244c2.923-8.025,0.104-14.377-1.127-16.581c3.365-8.317,0.424-15.012-0.811-17.248  c3.033-8.599-0.599-15.389-1.364-16.67c-0.111-0.188-0.186-0.299-0.186-0.299l-0.244-0.37l-0.396,0.198  c-5.656,2.827-9.687,6.899-11.979,12.104c-0.832,1.895-1.419,3.971-1.78,6.169c-0.063-0.079-0.121-0.159-0.186-0.238  c-1.651-2.018-3.613-3.974-5.833-5.812l-0.595-0.492l-0.206,0.744c-0.029,0.106-2.736,10.133,0.187,19.78l-0.187,0.674  c-0.105,0.379-2.531,9.346-0.15,18.595c-0.552,3.296-1.841,14.24,3.365,23.105l0.202,0.344c1.754,2.987,3.585,6.063,7.285,8.227  c0.01,0.032,0.025,0.082,0.029,0.096c0.048,0.149,0.164,0.268,0.313,0.319c0.053,0.019,0.108,0.027,0.163,0.027  c0.099,0,0.196-0.029,0.28-0.086c0.101-0.068,0.208-0.146,0.317-0.227c0.337-0.175,0.775-0.45,1.029-0.766  C68.157,76.856,62.137,62.479,60.416,59.244z M59.748,58.132l-0.077-0.117l-0.396,0.198c-5.653,2.828-9.683,6.902-11.979,12.112  c-0.025,0.059-0.051,0.118-0.075,0.177c-0.007-0.013-0.015-0.025-0.021-0.038c-0.258-0.486-0.539-0.97-0.832-1.452  c-0.074-0.122-0.151-0.243-0.228-0.365c-0.265-0.422-0.542-0.841-0.832-1.257c-0.036-0.052-0.067-0.105-0.104-0.158  c-0.018-0.275-0.024-0.547-0.035-0.82c-0.011-0.268-0.027-0.537-0.031-0.802c-0.004-0.288,0.004-0.57,0.007-0.855  c0.003-0.265,0-0.532,0.01-0.794c0.011-0.286,0.034-0.567,0.053-0.85c0.017-0.255,0.027-0.512,0.05-0.763  c0.027-0.291,0.067-0.574,0.103-0.861c0.029-0.237,0.051-0.478,0.086-0.712c0.044-0.296,0.102-0.584,0.155-0.874  c0.04-0.221,0.073-0.443,0.119-0.661c0.065-0.311,0.145-0.613,0.221-0.919c0.047-0.19,0.087-0.385,0.139-0.574  c0.086-0.314,0.188-0.622,0.286-0.932c0.055-0.173,0.102-0.351,0.16-0.521c0.096-0.281,0.207-0.554,0.313-0.83  c0.073-0.19,0.138-0.386,0.216-0.574c0.002-0.004,0.003-0.009,0.005-0.013l0.075-0.181l-0.002-0.006  c0.007-0.018,0.014-0.036,0.021-0.054c0.028-0.076,0.057-0.151,0.086-0.222c1.872-4.254,4.965-7.724,9.213-10.34  c0.045-0.028,0.096-0.052,0.141-0.08c0.564-0.343,1.144-0.674,1.747-0.987C59.094,44.313,62.22,50.404,59.748,58.132z   M58.574,41.768L58.3,41.904c-0.694,0.347-1.362,0.713-2.008,1.098c-0.213,0.127-0.409,0.268-0.616,0.398  c-0.421,0.266-0.845,0.529-1.243,0.811c-0.236,0.167-0.454,0.349-0.683,0.521c-0.347,0.263-0.698,0.522-1.027,0.798  c-0.232,0.195-0.446,0.403-0.669,0.605c-0.301,0.271-0.606,0.54-0.89,0.823c-0.219,0.219-0.421,0.45-0.63,0.676  c-0.263,0.284-0.53,0.565-0.777,0.86c-0.202,0.241-0.387,0.493-0.578,0.74c-0.23,0.298-0.462,0.594-0.677,0.902  c-0.182,0.261-0.347,0.533-0.518,0.802c-0.198,0.313-0.398,0.624-0.582,0.946c-0.159,0.28-0.304,0.569-0.452,0.856  c-0.12,0.233-0.254,0.456-0.366,0.694c-0.015-0.031-0.033-0.062-0.048-0.093c-0.279-0.596-0.584-1.188-0.91-1.774  c-0.075-0.135-0.154-0.27-0.232-0.404c-0.313-0.542-0.641-1.081-0.992-1.611c-0.029-0.044-0.053-0.089-0.082-0.133  c-0.015-0.302-0.019-0.599-0.025-0.898c-0.005-0.244-0.018-0.491-0.018-0.732c0-0.305,0.013-0.604,0.021-0.906  c0.007-0.251,0.008-0.506,0.021-0.754c0.015-0.291,0.044-0.575,0.067-0.862c0.021-0.251,0.035-0.506,0.062-0.755  c0.03-0.28,0.074-0.554,0.113-0.831c0.034-0.248,0.062-0.5,0.103-0.744c0.045-0.271,0.104-0.536,0.157-0.803  c0.048-0.242,0.09-0.488,0.145-0.727c0.062-0.272,0.139-0.538,0.209-0.806c0.06-0.226,0.112-0.456,0.178-0.679  c0.087-0.295,0.189-0.582,0.286-0.871c0.063-0.188,0.119-0.381,0.187-0.567c0.172-0.471,0.358-0.935,0.558-1.39  c0.134-0.302,0.28-0.61,0.438-0.922c0.157-0.313,0.325-0.629,0.503-0.947l0.001-0.002c2.216-3.982,5.632-7.189,10.159-9.536  l0.029,0.05C58.552,27.541,61.553,33.827,58.574,41.768z M45.225,20.781c2.14-4.859,5.873-8.694,11.1-11.404  c0.83,1.434,3.846,7.421,1.439,15.047l-0.316,0.158c-0.593,0.296-1.166,0.608-1.723,0.932c-0.194,0.113-0.376,0.235-0.565,0.351  c-0.355,0.218-0.712,0.435-1.052,0.665c-0.215,0.145-0.417,0.298-0.625,0.447c-0.299,0.214-0.599,0.427-0.885,0.651  c-0.212,0.165-0.412,0.338-0.617,0.508c-0.266,0.221-0.53,0.441-0.784,0.671c-0.201,0.182-0.392,0.369-0.585,0.556  c-0.24,0.232-0.479,0.465-0.708,0.706c-0.186,0.195-0.364,0.395-0.542,0.596c-0.218,0.245-0.432,0.492-0.639,0.745  c-0.169,0.208-0.333,0.418-0.494,0.631c-0.198,0.26-0.39,0.524-0.576,0.792c-0.15,0.217-0.298,0.436-0.441,0.658  c-0.078,0.121-0.164,0.235-0.239,0.357c-0.076-0.178-0.166-0.354-0.246-0.533c-0.103-0.229-0.207-0.458-0.317-0.686  c-0.18-0.373-0.373-0.743-0.572-1.113c-0.112-0.207-0.219-0.416-0.336-0.622c-0.25-0.439-0.518-0.874-0.793-1.307  c-0.083-0.131-0.159-0.264-0.244-0.394c-0.348-0.529-0.713-1.053-1.1-1.572C43.687,25.162,44.312,22.86,45.225,20.781z   M36.488,21.788c1.918,1.644,3.625,3.375,5.083,5.158c0.306,0.369,0.595,0.741,0.874,1.116c0.423,0.561,0.822,1.129,1.199,1.703  c0.123,0.188,0.229,0.379,0.347,0.567c0.243,0.388,0.489,0.776,0.71,1.168c0.132,0.234,0.244,0.471,0.368,0.707  c0.185,0.352,0.376,0.703,0.544,1.057c0.122,0.258,0.225,0.519,0.337,0.779c0.131,0.302,0.267,0.604,0.385,0.908  c-0.093,0.169-0.177,0.336-0.264,0.504c-0.054,0.105-0.112,0.211-0.165,0.315c-0.155,0.31-0.302,0.617-0.436,0.919  c-0.198,0.45-0.38,0.909-0.551,1.373c-0.057,0.155-0.106,0.314-0.161,0.471c-0.108,0.313-0.215,0.628-0.312,0.949  c-0.057,0.188-0.107,0.379-0.159,0.569c-0.082,0.297-0.162,0.595-0.234,0.897c-0.048,0.202-0.092,0.407-0.136,0.611  c-0.064,0.299-0.124,0.599-0.178,0.902c-0.037,0.21-0.073,0.42-0.106,0.632c-0.048,0.309-0.089,0.62-0.127,0.934  c-0.025,0.21-0.052,0.42-0.073,0.633c-0.033,0.33-0.056,0.663-0.079,0.997c-0.013,0.202-0.03,0.401-0.04,0.604  c-0.018,0.385-0.024,0.775-0.028,1.167c-0.001,0.157-0.009,0.312-0.008,0.47c0,0.017-0.001,0.034-0.001,0.052  c-0.299-0.398-0.611-0.795-0.935-1.19c-0.358-0.438-0.734-0.874-1.126-1.309c-0.107-0.119-0.225-0.236-0.334-0.354  c-0.291-0.315-0.582-0.63-0.89-0.943c-0.152-0.155-0.317-0.308-0.473-0.462c-0.278-0.274-0.553-0.548-0.844-0.82  c-0.176-0.165-0.364-0.327-0.545-0.49c-0.269-0.244-0.531-0.488-0.81-0.729C34.292,33.401,35.9,24.428,36.488,21.788z   M36.485,42.252l0.085,0.074c1.91,1.646,3.592,3.351,4.999,5.068c0.669,0.817,1.289,1.646,1.841,2.463  c0.27,0.4,0.528,0.805,0.776,1.212c0.068,0.111,0.128,0.226,0.195,0.338c0.174,0.296,0.349,0.592,0.511,0.892  c0.083,0.151,0.156,0.304,0.235,0.456c0.136,0.262,0.273,0.522,0.399,0.785c0.083,0.173,0.157,0.348,0.236,0.521  c0.097,0.214,0.195,0.428,0.286,0.642c-0.352,0.874-0.653,1.773-0.909,2.695c-0.042,0.151-0.077,0.306-0.116,0.458  c-0.086,0.333-0.169,0.667-0.242,1.006c-0.04,0.186-0.075,0.374-0.112,0.563c-0.061,0.313-0.118,0.627-0.168,0.945  c-0.031,0.199-0.06,0.399-0.088,0.601c-0.043,0.316-0.081,0.635-0.114,0.955c-0.021,0.202-0.042,0.404-0.058,0.607  c-0.028,0.336-0.047,0.675-0.064,1.015c-0.009,0.192-0.022,0.383-0.028,0.576c-0.012,0.39-0.013,0.784-0.01,1.18  c0,0.147-0.004,0.293-0.001,0.441c0,0.021,0,0.042,0,0.063c-0.033-0.041-0.069-0.079-0.102-0.12  c-0.448-0.562-0.907-1.11-1.393-1.645c-1.754-1.934-3.812-3.787-6.115-5.509l-0.293-0.22C34.753,51.29,35.984,44.502,36.485,42.252z   M39.989,82.741l-0.202-0.344c-5.083-8.655-3.754-19.436-3.227-22.528c0.003-0.017,0.006-0.032,0.008-0.048  c1.995,1.544,3.787,3.188,5.335,4.895c0.857,0.945,1.642,1.919,2.399,2.977c0.242,0.339,0.476,0.681,0.701,1.024  c0.087,0.134,0.168,0.27,0.253,0.403c0.133,0.211,0.269,0.422,0.395,0.634c0.091,0.153,0.174,0.307,0.262,0.46  c0.112,0.196,0.227,0.393,0.333,0.59c0.081,0.151,0.155,0.304,0.233,0.455c0.087,0.17,0.175,0.34,0.257,0.511  c-0.186,0.509-0.35,1.019-0.499,1.526c-0.049,0.167-0.087,0.332-0.133,0.498c-0.1,0.367-0.196,0.733-0.279,1.099  c-0.065,0.282-0.121,0.562-0.176,0.842c-0.041,0.209-0.08,0.417-0.115,0.625c-1.023,5.876-0.096,11.206,0.502,13.709  C43.142,88.092,41.601,85.485,39.989,82.741z M47.942,90.04l-0.471,0.331c-0.047,0.033-0.097,0.067-0.144,0.101  c-0.544-1.949-1.992-8.156-0.628-14.854c0.023-0.111,0.044-0.223,0.069-0.335c0.093-0.427,0.203-0.855,0.32-1.284  c0.04-0.144,0.073-0.288,0.116-0.432c0.159-0.544,0.335-1.087,0.538-1.63c0.003-0.007,0.005-0.015,0.008-0.022l0.095-0.253  c0.117-0.313,0.233-0.628,0.368-0.937c2.143-4.862,5.876-8.699,11.101-11.41l0.127,0.223C60.924,62.224,67.304,76.255,47.942,90.04z  "/></svg>
