<svg xmlns="http://www.w3.org/2000/svg" xmlns:xlink="http://www.w3.org/1999/xlink" version="1.1" x="0px" y="0px" viewBox="0 0 100 100" style="enable-background:new 0 0 100 100;" xml:space="preserve"><path d="M89.125,88H59.871V59.167h13.736c4.074,0,7.389-3.315,7.389-7.39v-1.776c0-0.553-0.448-1-1-1H56.122V26.229  c0-0.048-0.021-0.09-0.027-0.136c1.933-1.684,3.162-4.156,3.162-6.915c0-5.061-4.117-9.178-9.178-9.178  c-5.061,0-9.178,4.117-9.178,9.178c0,2.759,1.229,5.231,3.163,6.915c-0.007,0.046-0.027,0.088-0.027,0.136v22.771H20.163  c-0.552,0-1,0.447-1,1v1.776c0,4.074,3.315,7.39,7.389,7.39h13.736V88H11.125c-0.552,0-1,0.447-1,1s0.448,1,1,1h78  c0.552,0,1-0.447,1-1S89.677,88,89.125,88z M46.036,31.695l7.993,7.992c0.028,0.028,0.063,0.038,0.093,0.062v7.181l-8.013-8.012  c-0.022-0.022-0.05-0.029-0.073-0.049V31.695z M42.901,19.179c0-3.958,3.22-7.178,7.178-7.178s7.178,3.22,7.178,7.178  s-3.22,7.178-7.178,7.178S42.901,23.137,42.901,19.179z M50.079,28.356c1.452,0,2.821-0.348,4.043-0.951v9.547l-8.013-8.012  c-0.022-0.022-0.05-0.029-0.073-0.049v-1.486C47.258,28.008,48.627,28.356,50.079,28.356z M46.036,41.673l7.329,7.328h-7.329V41.673  z M21.163,51.777v-0.776h57.833v0.776c0,2.972-2.417,5.39-5.389,5.39H26.552C23.58,57.167,21.163,54.749,21.163,51.777z   M42.288,59.167h15.583V88h-6.792V68.056c0-0.553-0.448-1-1-1s-1,0.447-1,1V88h-6.792V59.167z"/></svg>
