<svg xmlns="http://www.w3.org/2000/svg" xmlns:xlink="http://www.w3.org/1999/xlink" version="1.1" x="0px" y="0px" viewBox="0 0 100 100" style="enable-background:new 0 0 100 100;" xml:space="preserve"><path d="M77.4169922,59.9970703h-4.6767578v-4.6777344c0-0.5527344-0.4477539-1-1-1H64.328125c-0.5522461,0-1,0.4472656-1,1  v4.6777344h-4.6767578c-0.5522461,0-1,0.4472656-1,1v7.4111328c0,0.5527344,0.4477539,1,1,1h4.6767578v4.6777344  c0,0.5527344,0.4477539,1,1,1h7.4121094c0.5522461,0,1-0.4472656,1-1v-4.6777344h4.6767578c0.5522461,0,1-0.4472656,1-1v-7.4111328  C78.4169922,60.4443359,77.9692383,59.9970703,77.4169922,59.9970703z M76.4169922,67.4082031h-4.6767578  c-0.5522461,0-1,0.4472656-1,1v4.6777344H65.328125v-4.6777344c0-0.5527344-0.4477539-1-1-1h-4.6767578v-5.4111328h4.6767578  c0.5522461,0,1-0.4472656,1-1v-4.6777344h5.4121094v4.6777344c0,0.5527344,0.4477539,1,1,1h4.6767578V67.4082031z"/><path d="M90,48.28125c0-3.595459-2.3606567-5.776123-4.3037109-6.9674683  c1.4192505-0.8764648,2.3754883-2.4331055,2.3754883-4.2200317v-4.8505859c0-2.7412109-2.2304688-4.9716797-4.9716797-4.9716797  H66.5180664V11c0-0.5527344-0.4477539-1-1-1H11c-0.5522461,0-1,0.4472656-1,1v72.4726562c0,0.5527344,0.4477539,1,1,1h35.2022705  c0.1925049,1.0281982,0.6622314,2.4783325,1.8162842,3.6503906c1.2446289,1.2636719,2.965332,1.9042969,5.1142578,1.9042969  h29.8027344c2.1489258,0,3.8696289-0.640625,5.1142578-1.9042969c1.972168-2.0029297,1.9521484-4.828125,1.9501953-4.9316406  V48.28125z M48.0683594,50.5205078H88v28.3642578H48.0683594V50.5205078z M88,48.28125v0.2392578H48.0683594V48.28125  c0-4.3776855,4.9414673-6.0708008,5.3915405-6.2158203h29.2138062C83.3071289,42.2838135,88,44.0480347,88,48.28125z   M86.0717773,32.2431641V37.09375c0,1.6386719-1.3330078,2.9716797-2.9716797,2.9716797H52.96875  c-1.6386719,0-2.972168-1.3330078-2.972168-2.9716797v-4.8505859c0-1.6386719,1.3334961-2.9716797,2.972168-2.9716797h30.1313477  C84.7387695,29.2714844,86.0717773,30.6044922,86.0717773,32.2431641z M12,12h52.5180664v15.2714844H52.96875  c-2.7416992,0-4.972168,2.2304688-4.972168,4.9716797V37.09375c0,1.7940674,0.9644165,3.3552246,2.3932495,4.2296143  c-1.953125,1.1895752-4.3214722,3.3660278-4.3214722,6.9578857v34.1914062H12V12z M86.625,86.7197266  c-0.8549805,0.8671875-2.0961914,1.3076172-3.6894531,1.3076172H53.1328125c-1.5864258,0-2.8237305-0.4365234-3.6777344-1.2958984  c-1.3852539-1.3955078-1.3867188-3.5078125-1.3867188-3.5400391v-2.3066406H88v2.3222656  C88.0004883,83.2275391,87.9941406,85.3291016,86.625,86.7197266z"/><path d="M80.6137695,37.5146484c0.5522461,0,1-0.4472656,1-1v-3.7431641c0-0.5527344-0.4477539-1-1-1s-1,0.4472656-1,1v3.7431641  C79.6137695,37.0673828,80.0615234,37.5146484,80.6137695,37.5146484z"/><path d="M75.5820312,37.5146484c0.5522461,0,1-0.4472656,1-1v-3.7431641c0-0.5527344-0.4477539-1-1-1s-1,0.4472656-1,1v3.7431641  C74.5820312,37.0673828,75.0297852,37.5146484,75.5820312,37.5146484z"/><path d="M70.550293,37.5146484c0.5522461,0,1-0.4472656,1-1v-3.7431641c0-0.5527344-0.4477539-1-1-1s-1,0.4472656-1,1v3.7431641  C69.550293,37.0673828,69.9980469,37.5146484,70.550293,37.5146484z"/><path d="M64.5180664,32.7714844v3.7431641c0,0.5527344,0.4477539,1,1,1s1-0.4472656,1-1v-3.7431641c0-0.5527344-0.4477539-1-1-1  S64.5180664,32.21875,64.5180664,32.7714844z"/><path d="M60.4863281,31.7714844c-0.5522461,0-1,0.4472656-1,1v3.7431641c0,0.5527344,0.4477539,1,1,1s1-0.4472656,1-1v-3.7431641  C61.4863281,32.21875,61.0385742,31.7714844,60.4863281,31.7714844z"/><path d="M55.4545898,31.7714844c-0.5522461,0-1,0.4472656-1,1v3.7431641c0,0.5527344,0.4477539,1,1,1s1-0.4472656,1-1v-3.7431641  C56.4545898,32.21875,56.0068359,31.7714844,55.4545898,31.7714844z"/><path d="M35.8085938,50.5068359H22.612793c-0.5522461,0-1,0.4472656-1,1V64.703125c0,0.5527344,0.4477539,1,1,1h13.1958008  c0.5522461,0,1-0.4472656,1-1V51.5068359C36.8085938,50.9541016,36.3608398,50.5068359,35.8085938,50.5068359z   M34.8085938,63.703125H23.612793V52.5068359h11.1958008V63.703125z"/><path d="M35.8085938,20.3183594H22.612793c-0.5522461,0-1,0.4472656-1,1v13.1953125c0,0.5527344,0.4477539,1,1,1h13.1958008  c0.5522461,0,1-0.4472656,1-1V21.3183594C36.8085938,20.765625,36.3608398,20.3183594,35.8085938,20.3183594z   M34.8085938,33.5136719H23.612793V22.3183594h11.1958008V33.5136719z"/><path d="M35.7275391,72.1992188H22.612793c-0.5522461,0-1,0.4472656-1,1s0.4477539,1,1,1h13.1147461c0.5522461,0,1-0.4472656,1-1  S36.2797852,72.1992188,35.7275391,72.1992188z"/><path d="M22.612793,44.0107422h13.1147461c0.5522461,0,1-0.4472656,1-1s-0.4477539-1-1-1H22.612793c-0.5522461,0-1,0.4472656-1,1  S22.0605469,44.0107422,22.612793,44.0107422z"/></svg>
