<svg xmlns="http://www.w3.org/2000/svg" xmlns:xlink="http://www.w3.org/1999/xlink" viewBox="0 0 20 20" version="1.1" x="0px" y="0px"><title>More</title><desc>Created with Sketch.</desc><g stroke="none" stroke-width="1" fill="none" fill-rule="evenodd"><g transform="translate(-290.000000, -260.000000)" fill="#000000"><g transform="translate(20.000000, 260.000000)"><path d="M280,18 C284.418278,18 288,14.418278 288,10 C288,5.581722 284.418278,2 280,2 C275.581722,2 272,5.581722 272,10 C272,14.418278 275.581722,18 280,18 Z M280,16 C283.313708,16 286,13.3137085 286,10 C286,6.6862915 283.313708,4 280,4 C276.686292,4 274,6.6862915 274,10 C274,13.3137085 276.686292,16 280,16 Z M283,11 C283.552285,11 284,10.5522847 284,10 C284,9.44771525 283.552285,9 283,9 C282.447715,9 282,9.44771525 282,10 C282,10.5522847 282.447715,11 283,11 Z M280,11 C280.552285,11 281,10.5522847 281,10 C281,9.44771525 280.552285,9 280,9 C279.447715,9 279,9.44771525 279,10 C279,10.5522847 279.447715,11 280,11 Z M277,11 C277.552285,11 278,10.5522847 278,10 C278,9.44771525 277.552285,9 277,9 C276.447715,9 276,9.44771525 276,10 C276,10.5522847 276.447715,11 277,11 Z"/></g></g></g></svg>
